# File created by Blade
# Date/Time:  Wed Jan 21 14:37:15 2015
# Frame Rate: 120.000 fps
#------------------------------------------------------
:FULLY-SPECIFIED
:DEGREES
788
root 18.828950 35.558130 -21.114457 -173.982883 -4.300773 -178.513527
Spine -16.530992 -1.524434 0.647864
Head 6.098036 -2.598190 0.351454
LeftShoulder -8.919887 -30.750928 12.140264
LeftArm 17.854638 34.033872 -9.999164
LeftForeArm 22.822581 -0.000000 44.870262
LeftHand 4.944449 0.000000 -2.071047
LeftHandThumb1 -26.253704 0.000000 33.147579
RightShoulder -7.686203 -7.452424 -2.735483
RightArm 18.039930 5.223225 22.925163
RightForeArm -37.107532 -0.000000 18.266707
RightHand 7.459955 -0.000000 0.751818
RightHandThumb1 -24.326973 -0.000000 -32.862282
LeftUpLeg -0.204746 11.367636 2.021482
LeftLeg -6.042075 -0.000000 0.000000
LeftFoot -18.568825 28.719774 -10.512498
LeftToeBase 27.452985 -0.000000 -0.000000
RightUpLeg -0.350068 -10.078822 1.970301
RightLeg -3.076438 -0.000000 0.000000
RightFoot -20.025870 -27.275358 13.675934
RightToeBase 23.828746 -0.000000 -0.000000
789
root 18.822908 35.555995 -21.129129 -173.928112 -4.283301 -178.541630
Spine -16.508556 -1.401653 0.643210
Head 6.050939 -2.525512 0.294019
LeftShoulder -9.067391 -30.935872 12.232360
LeftArm 17.113617 33.860638 -10.128033
LeftForeArm 22.808629 0.000000 42.458090
LeftHand 5.120720 -0.000000 -2.400578
LeftHandThumb1 -26.253704 0.000000 33.147579
RightShoulder -7.862450 -7.379042 -3.042455
RightArm 17.605101 6.420731 22.772620
RightForeArm -37.092961 -0.000000 16.535781
RightHand 7.596946 -0.000000 1.371571
RightHandThumb1 -24.326973 -0.000000 -32.862282
LeftUpLeg -0.244225 11.390036 1.977618
LeftLeg -6.014509 -0.000000 0.000000
LeftFoot -18.601361 28.703721 -10.510924
LeftToeBase 27.439342 -0.000000 -0.000000
RightUpLeg -0.390110 -9.997852 1.938958
RightLeg -3.055303 -0.000000 0.000000
RightFoot -20.085310 -27.343015 13.657438
RightToeBase 23.824868 -0.000000 -0.000000
790
root 18.817392 35.554515 -21.145223 -173.889597 -4.285261 -178.556308
Spine -16.478251 -1.318028 0.676415
Head 6.039782 -2.478082 0.195753
LeftShoulder -9.231616 -31.071061 12.301492
LeftArm 16.458648 33.614539 -10.238363
LeftForeArm 22.595478 -0.000000 39.967077
LeftHand 5.347966 -0.000000 -2.604980
LeftHandThumb1 -26.253704 0.000000 33.147579
RightShoulder -7.946839 -7.058818 -3.386989
RightArm 16.917045 7.106803 22.409045
RightForeArm -36.855318 0.000000 15.030066
RightHand 7.640398 -0.000000 2.233855
RightHandThumb1 -24.326973 -0.000000 -32.862282
LeftUpLeg -0.273356 11.390090 1.954848
LeftLeg -5.977266 -0.000000 0.000000
LeftFoot -18.639856 28.700489 -10.497420
LeftToeBase 27.469278 -0.000000 -0.000000
RightUpLeg -0.406916 -9.954488 1.921683
RightLeg -3.044704 -0.000000 0.000000
RightFoot -20.140305 -27.382533 13.718976
RightToeBase 23.785928 -0.000000 -0.000000
791
root 18.811719 35.553168 -21.161007 -173.857297 -4.291218 -178.580925
Spine -16.452075 -1.250462 0.684146
Head 6.059313 -2.440220 0.144038
LeftShoulder -9.370428 -31.210102 12.360969
LeftArm 15.817128 33.321190 -10.301869
LeftForeArm 22.346506 -0.000000 37.564633
LeftHand 5.510542 -0.000000 -3.007122
LeftHandThumb1 -26.253704 0.000000 33.147579
RightShoulder -8.066454 -6.878219 -3.692956
RightArm 16.355381 7.988730 22.068286
RightForeArm -36.520310 -0.000000 13.620457
RightHand 7.682387 -0.000000 2.978740
RightHandThumb1 -24.326973 -0.000000 -32.862282
LeftUpLeg -0.318197 11.437850 1.924140
LeftLeg -5.898575 -0.000000 0.000000
LeftFoot -18.694655 28.623963 -10.497773
LeftToeBase 27.471619 -0.000000 -0.000000
RightUpLeg -0.417301 -9.894427 1.890260
RightLeg -3.025236 -0.000000 0.000000
RightFoot -20.191860 -27.465426 13.676702
RightToeBase 23.838835 -0.000000 -0.000000
